<?xml version="1.0" encoding="iso-8859-1"?>
<svg version="1.1" id="Layer_1" xmlns="http://www.w3.org/2000/svg" xmlns:xlink="http://www.w3.org/1999/xlink" x="0px" y="0px"
	 viewBox="0 0 512 512" style="enable-background:new 0 0 512 512;" xml:space="preserve">
	<path style="fill:#EDEDED;" d="M435.2,307.2H64V76.8h371.2c42.415,0,76.8,34.385,76.8,76.8v76.8
		C512,272.815,477.615,307.2,435.2,307.2z"/>
	<path style="fill:#D8D8DA;" d="M435.2,76.8h-64c42.415,0,76.8,34.385,76.8,76.8v76.8c0,42.415-34.385,76.8-76.8,76.8h64
		c42.415,0,76.8-34.385,76.8-76.8v-76.8C512,111.185,477.615,76.8,435.2,76.8z"/>
	<circle style="fill:#E07188;" cx="281.6" cy="192" r="64"/>
	<g>
		<path style="fill:#EDEDED;" d="M307.2,201.6H256c-5.302,0-9.6-4.297-9.6-9.6c0-5.303,4.298-9.6,9.6-9.6h51.2
			c5.302,0,9.6,4.297,9.6,9.6C316.8,197.303,312.502,201.6,307.2,201.6z"/>
		<rect x="25.6" y="51.2" style="fill:#EDEDED;" width="51.2" height="422.4"/>
	</g>
	<g>
		<rect x="51.2" y="51.2" style="fill:#D8D8DA;" width="25.6" height="422.4"/>
		<circle style="fill:#D8D8DA;" cx="51.2" cy="25.6" r="25.6"/>
	</g>
	<path style="fill:#C5C5CA;" d="M51.2,0c-4.668,0-9.032,1.27-12.8,3.452C46.044,7.881,51.2,16.131,51.2,25.6
		s-5.156,17.719-12.8,22.148c3.768,2.182,8.132,3.452,12.8,3.452c14.139,0,25.6-11.461,25.6-25.6S65.339,0,51.2,0z"/>
	<path style="fill:#D8D8DA;" d="M83.2,460.8h-64C8.596,460.8,0,469.396,0,480v32h102.4v-32C102.4,469.396,93.804,460.8,83.2,460.8z"/>
	<path style="fill:#C5C5CA;" d="M83.2,460.8H44.8c10.604,0,19.2,8.596,19.2,19.2v32h38.4v-32C102.4,469.396,93.804,460.8,83.2,460.8z"/>
</svg>
